<?xml version="1.0" encoding="iso-8859-1"?>
<!-- Generator: Adobe Illustrator 19.0.0, SVG Export Plug-In . SVG Version: 6.00 Build 0)  -->
<svg version="1.1" id="Capa_1" xmlns="http://www.w3.org/2000/svg" xmlns:xlink="http://www.w3.org/1999/xlink" x="0px" y="0px"
	 viewBox="0 0 482.862 482.862" style="enable-background:new 0 0 482.862 482.862;" xml:space="preserve">
<linearGradient id="SVGID_1_" gradientUnits="userSpaceOnUse" x1="-26.558" y1="562.345" x2="-26.558" y2="622.768" gradientTransform="matrix(8 0 0 -8 453.895 4965.48)">
	<stop  offset="0" style="stop-color:#006DF0"/>
	<stop  offset="1" style="stop-color:#00E7F0"/>
</linearGradient>
<path style="fill:url(#SVGID_1_);" d="M463.566,326.16c-29.955,13.631-62.497,20.644-95.408,20.56
	c-128.07-0.145-231.855-103.93-232-232c-0.084-32.911,6.929-65.453,20.56-95.408L165.518,0l-19.36,8.704
	c-124.87,56.28-180.473,203.13-124.193,328s203.13,180.473,328,124.193c55.162-24.862,99.332-69.032,124.193-124.193l8.704-19.352
	L463.566,326.16z M248.158,466.72c-128.13-0.014-231.989-103.895-231.975-232.025c0.009-83.657,45.056-160.83,117.895-201.975
	c-9.273,26.342-13.981,54.074-13.92,82c0.154,136.903,111.097,247.846,248,248c27.926,0.061,55.658-4.646,82-13.92
	C408.976,421.619,331.815,466.663,248.158,466.72z"/>
<g>
	
		<linearGradient id="SVGID_2_" gradientUnits="userSpaceOnUse" x1="-7.7171" y1="562.345" x2="-7.7171" y2="622.768" gradientTransform="matrix(8 0 0 -8 453.895 4965.48)">
		<stop  offset="0" style="stop-color:#006DF0"/>
		<stop  offset="1" style="stop-color:#00E7F0"/>
	</linearGradient>
	<path style="fill:url(#SVGID_2_);" d="M384.158,50.72h16v32h-16V50.72z"/>
	
		<linearGradient id="SVGID_3_" gradientUnits="userSpaceOnUse" x1="-7.7171" y1="562.345" x2="-7.7171" y2="622.768" gradientTransform="matrix(8 0 0 -8 453.895 4965.48)">
		<stop  offset="0" style="stop-color:#006DF0"/>
		<stop  offset="1" style="stop-color:#00E7F0"/>
	</linearGradient>
	<path style="fill:url(#SVGID_3_);" d="M384.158,98.72h16v32h-16V98.72z"/>
	
		<linearGradient id="SVGID_4_" gradientUnits="userSpaceOnUse" x1="-4.7171" y1="562.345" x2="-4.7171" y2="622.768" gradientTransform="matrix(8 0 0 -8 453.895 4965.48)">
		<stop  offset="0" style="stop-color:#006DF0"/>
		<stop  offset="1" style="stop-color:#00E7F0"/>
	</linearGradient>
	<path style="fill:url(#SVGID_4_);" d="M400.158,82.72h32v16h-32V82.72z"/>
	
		<linearGradient id="SVGID_5_" gradientUnits="userSpaceOnUse" x1="-10.7171" y1="562.345" x2="-10.7171" y2="622.768" gradientTransform="matrix(8 0 0 -8 453.895 4965.48)">
		<stop  offset="0" style="stop-color:#006DF0"/>
		<stop  offset="1" style="stop-color:#00E7F0"/>
	</linearGradient>
	<path style="fill:url(#SVGID_5_);" d="M352.158,82.72h32v16h-32V82.72z"/>
	
		<linearGradient id="SVGID_6_" gradientUnits="userSpaceOnUse" x1="-7.7171" y1="562.345" x2="-7.7171" y2="622.768" gradientTransform="matrix(8 0 0 -8 453.895 4965.48)">
		<stop  offset="0" style="stop-color:#006DF0"/>
		<stop  offset="1" style="stop-color:#00E7F0"/>
	</linearGradient>
	<path style="fill:url(#SVGID_6_);" d="M384.158,162.72h16v32h-16V162.72z"/>
	
		<linearGradient id="SVGID_7_" gradientUnits="userSpaceOnUse" x1="-7.7171" y1="562.345" x2="-7.7171" y2="622.768" gradientTransform="matrix(8 0 0 -8 453.895 4965.48)">
		<stop  offset="0" style="stop-color:#006DF0"/>
		<stop  offset="1" style="stop-color:#00E7F0"/>
	</linearGradient>
	<path style="fill:url(#SVGID_7_);" d="M384.158,210.72h16v32h-16V210.72z"/>
	
		<linearGradient id="SVGID_8_" gradientUnits="userSpaceOnUse" x1="-4.7171" y1="562.345" x2="-4.7171" y2="622.768" gradientTransform="matrix(8 0 0 -8 453.895 4965.48)">
		<stop  offset="0" style="stop-color:#006DF0"/>
		<stop  offset="1" style="stop-color:#00E7F0"/>
	</linearGradient>
	<path style="fill:url(#SVGID_8_);" d="M400.158,194.72h32v16h-32V194.72z"/>
	
		<linearGradient id="SVGID_9_" gradientUnits="userSpaceOnUse" x1="-10.7171" y1="562.345" x2="-10.7171" y2="622.768" gradientTransform="matrix(8 0 0 -8 453.895 4965.48)">
		<stop  offset="0" style="stop-color:#006DF0"/>
		<stop  offset="1" style="stop-color:#00E7F0"/>
	</linearGradient>
	<path style="fill:url(#SVGID_9_);" d="M352.158,194.72h32v16h-32V194.72z"/>
	
		<linearGradient id="SVGID_10_" gradientUnits="userSpaceOnUse" x1="-21.7171" y1="562.345" x2="-21.7171" y2="622.768" gradientTransform="matrix(8 0 0 -8 453.895 4965.48)">
		<stop  offset="0" style="stop-color:#006DF0"/>
		<stop  offset="1" style="stop-color:#00E7F0"/>
	</linearGradient>
	<path style="fill:url(#SVGID_10_);" d="M272.158,122.72h16v16h-16V122.72z"/>
	
		<linearGradient id="SVGID_11_" gradientUnits="userSpaceOnUse" x1="-21.7171" y1="562.345" x2="-21.7171" y2="622.768" gradientTransform="matrix(8 0 0 -8 453.895 4965.48)">
		<stop  offset="0" style="stop-color:#006DF0"/>
		<stop  offset="1" style="stop-color:#00E7F0"/>
	</linearGradient>
	<path style="fill:url(#SVGID_11_);" d="M272.158,154.72h16v16h-16V154.72z"/>
	
		<linearGradient id="SVGID_12_" gradientUnits="userSpaceOnUse" x1="-19.7171" y1="562.345" x2="-19.7171" y2="622.768" gradientTransform="matrix(8 0 0 -8 453.895 4965.48)">
		<stop  offset="0" style="stop-color:#006DF0"/>
		<stop  offset="1" style="stop-color:#00E7F0"/>
	</linearGradient>
	<path style="fill:url(#SVGID_12_);" d="M288.158,138.72h16v16h-16V138.72z"/>
	
		<linearGradient id="SVGID_13_" gradientUnits="userSpaceOnUse" x1="-23.7171" y1="562.345" x2="-23.7171" y2="622.768" gradientTransform="matrix(8 0 0 -8 453.895 4965.48)">
		<stop  offset="0" style="stop-color:#006DF0"/>
		<stop  offset="1" style="stop-color:#00E7F0"/>
	</linearGradient>
	<path style="fill:url(#SVGID_13_);" d="M256.158,138.72h16v16h-16V138.72z"/>
</g>
<g>
</g>
<g>
</g>
<g>
</g>
<g>
</g>
<g>
</g>
<g>
</g>
<g>
</g>
<g>
</g>
<g>
</g>
<g>
</g>
<g>
</g>
<g>
</g>
<g>
</g>
<g>
</g>
<g>
</g>
</svg>
