<?xml version="1.0" encoding="iso-8859-1"?>
<!-- Generator: Adobe Illustrator 19.0.0, SVG Export Plug-In . SVG Version: 6.00 Build 0)  -->
<svg version="1.1" id="Capa_1" xmlns="http://www.w3.org/2000/svg" xmlns:xlink="http://www.w3.org/1999/xlink" x="0px" y="0px"
	 viewBox="0 0 480.245 480.245" style="enable-background:new 0 0 480.245 480.245;" xml:space="preserve">
<linearGradient id="SVGID_1_" gradientUnits="userSpaceOnUse" x1="-26.838" y1="641.7806" x2="-26.838" y2="686.9996" gradientTransform="matrix(8 0 0 -8 454.8267 5554.104)">
	<stop  offset="0" style="stop-color:#006DF0"/>
	<stop  offset="1" style="stop-color:#00E7F0"/>
</linearGradient>
<path style="fill:url(#SVGID_1_);" d="M376.025,204.123c-8.125-0.014-16.223,0.925-24.128,2.8
	c-2.825-57.324-51.586-101.504-108.91-98.678c-24.448,1.205-47.686,11.001-65.618,27.662
	c-46.399-14.103-95.446,12.077-109.549,58.476c-4.617,15.188-5.029,31.344-1.195,46.748c-7.399,8.8-12.801,19.101-15.832,30.192
	c-37.997,11.723-59.297,52.029-47.574,90.026c9.313,30.186,37.215,50.776,68.806,50.774h304c2.968,0,5.848-0.088,8.664-0.344
	c57.248-4.666,99.873-54.858,95.207-112.105C475.489,245.609,430.269,204.011,376.025,204.123z M152.025,148.123
	c4.368-0.003,8.727,0.388,13.024,1.168c-0.992,1.304-1.88,2.672-2.8,4c-0.52,0.8-1.08,1.488-1.6,2.256
	c-1.696,2.608-3.28,5.272-4.728,8c-0.152,0.296-0.28,0.608-0.432,0.912c-1.264,2.448-2.424,4.941-3.48,7.48
	c-0.4,0.944-0.736,1.92-1.104,2.88c-0.736,1.944-1.44,3.896-2.064,5.888c-0.352,1.104-0.664,2.216-0.968,3.328
	c-0.533,1.931-1.011,3.875-1.432,5.832c-0.248,1.128-0.496,2.256-0.696,3.392c-0.384,2.096-0.672,4.216-0.928,6.344
	c-0.112,1.008-0.272,2-0.36,3.016c-0.256,3.16-0.432,6.304-0.432,9.504v1.6c-5.265-1.074-10.626-1.61-16-1.6
	c-2.512,0-5.008,0.152-7.496,0.392c-0.8,0.072-1.52,0.184-2.288,0.28c-1.76,0.219-3.507,0.485-5.24,0.8
	c-0.8,0.152-1.6,0.312-2.4,0.488c-1.856,0.416-3.68,0.912-5.496,1.456c-0.576,0.168-1.16,0.312-1.728,0.496
	c-2.328,0.76-4.616,1.6-6.856,2.584c-0.6,0.256-1.168,0.56-1.76,0.8c-1.656,0.8-3.296,1.6-4.896,2.4
	c-0.8,0.424-1.528,0.856-2.28,1.304c-1.456,0.848-2.872,1.752-4.264,2.696c-0.688,0.464-1.384,0.912-2.048,1.392
	c-0.272,0.192-0.552,0.36-0.8,0.552c-0.282-2.537-0.432-5.087-0.448-7.64C80.073,180.378,112.28,148.171,152.025,148.123
	L152.025,148.123z M383.297,395.835c-2.4,0.224-4.8,0.288-7.272,0.288h-304c-30.928-0.002-55.999-25.075-55.997-56.003
	c0.002-26.013,17.916-48.6,43.245-54.525c3.044-0.704,5.4-3.116,6.032-6.176c6.108-29.802,32.299-51.222,62.72-51.296
	c7.487-0.049,14.919,1.288,21.92,3.944c4.122,1.592,8.753-0.459,10.345-4.58c0.488-1.263,0.647-2.63,0.463-3.972
	c-0.502-3.776-0.746-7.583-0.728-11.392c0-48.601,39.399-88,88-88s88,39.399,88,88c0,1.72-0.072,3.44-0.152,5.168
	c-0.194,4.414,3.228,8.149,7.642,8.343c1.039,0.046,2.076-0.112,3.054-0.463c9.452-3.375,19.419-5.083,29.456-5.048
	c48.601-0.088,88.072,39.239,88.16,87.84C464.268,353.867,429.052,392.125,383.297,395.835z"/>
<g>
	
		<linearGradient id="SVGID_2_" gradientUnits="userSpaceOnUse" x1="-37.8502" y1="641.7806" x2="-37.8502" y2="686.9996" gradientTransform="matrix(8 0 0 -8 454.8267 5554.104)">
		<stop  offset="0" style="stop-color:#006DF0"/>
		<stop  offset="1" style="stop-color:#00E7F0"/>
	</linearGradient>
	<path style="fill:url(#SVGID_2_);" d="M152.025,116.123c4.418,0,8-3.582,8-8v-32c0-4.418-3.582-8-8-8s-8,3.582-8,8v32
		C144.025,112.541,147.606,116.123,152.025,116.123z"/>
	
		<linearGradient id="SVGID_3_" gradientUnits="userSpaceOnUse" x1="-44.1208" y1="641.7806" x2="-44.1208" y2="686.9996" gradientTransform="matrix(8 0 0 -8 454.8267 5554.104)">
		<stop  offset="0" style="stop-color:#006DF0"/>
		<stop  offset="1" style="stop-color:#00E7F0"/>
	</linearGradient>
	<path style="fill:url(#SVGID_3_);" d="M100.545,121.547c1.692,4.082,6.374,6.02,10.456,4.328s6.02-6.374,4.328-10.456
		l-12.248-29.56c-1.808-4.031-6.542-5.833-10.574-4.025c-3.867,1.735-5.71,6.184-4.202,10.145L100.545,121.547z"/>
	
		<linearGradient id="SVGID_4_" gradientUnits="userSpaceOnUse" x1="-49.3884" y1="641.7806" x2="-49.3884" y2="686.9996" gradientTransform="matrix(8 0 0 -8 454.8267 5554.104)">
		<stop  offset="0" style="stop-color:#006DF0"/>
		<stop  offset="1" style="stop-color:#00E7F0"/>
	</linearGradient>
	<path style="fill:url(#SVGID_4_);" d="M65.521,150.587c3.223,3.022,8.286,2.86,11.308-0.363c2.887-3.079,2.886-7.872-0.004-10.949
		l-22.624-22.632c-3.069-3.178-8.134-3.266-11.312-0.197c-3.178,3.069-3.266,8.134-0.197,11.312c0.064,0.067,0.13,0.132,0.197,0.197
		L65.521,150.587z"/>
	
		<linearGradient id="SVGID_5_" gradientUnits="userSpaceOnUse" x1="-52.7832" y1="641.7806" x2="-52.7832" y2="686.9996" gradientTransform="matrix(8 0 0 -8 454.8267 5554.104)">
		<stop  offset="0" style="stop-color:#006DF0"/>
		<stop  offset="1" style="stop-color:#00E7F0"/>
	</linearGradient>
	<path style="fill:url(#SVGID_5_);" d="M14.697,178.571l29.6,12.248c4.082,1.692,8.764-0.246,10.456-4.328
		c1.692-4.082-0.246-8.764-4.328-10.456l-29.6-12.248c-4.082-1.692-8.764,0.245-10.456,4.328
		C8.677,172.197,10.614,176.878,14.697,178.571z"/>
	
		<linearGradient id="SVGID_6_" gradientUnits="userSpaceOnUse" x1="-53.8502" y1="641.7806" x2="-53.8502" y2="686.9996" gradientTransform="matrix(8 0 0 -8 454.8267 5554.104)">
		<stop  offset="0" style="stop-color:#006DF0"/>
		<stop  offset="1" style="stop-color:#00E7F0"/>
	</linearGradient>
	<path style="fill:url(#SVGID_6_);" d="M8.025,236.123h32c4.418,0,8-3.582,8-8s-3.582-8-8-8h-32c-4.418,0-8,3.582-8,8
		S3.606,236.123,8.025,236.123z"/>
</g>
<g>
</g>
<g>
</g>
<g>
</g>
<g>
</g>
<g>
</g>
<g>
</g>
<g>
</g>
<g>
</g>
<g>
</g>
<g>
</g>
<g>
</g>
<g>
</g>
<g>
</g>
<g>
</g>
<g>
</g>
</svg>
