<?xml version="1.0" encoding="iso-8859-1"?>
<!-- Generator: Adobe Illustrator 19.0.0, SVG Export Plug-In . SVG Version: 6.00 Build 0)  -->
<svg version="1.1" id="Capa_1" xmlns="http://www.w3.org/2000/svg" xmlns:xlink="http://www.w3.org/1999/xlink" x="0px" y="0px"
	 viewBox="0 0 479.647 479.647" style="enable-background:new 0 0 479.647 479.647;" xml:space="preserve">
<linearGradient id="SVGID_1_" gradientUnits="userSpaceOnUse" x1="-26.8968" y1="559.9262" x2="-26.8968" y2="619.3463" gradientTransform="matrix(8 0 0 -8 454.9981 4960.4243)">
	<stop  offset="0" style="stop-color:#006DF0"/>
	<stop  offset="1" style="stop-color:#00E7F0"/>
</linearGradient>
<path style="fill:url(#SVGID_1_);" d="M376,306.158H72c-39.746-0.044-71.956-32.254-72-72c-0.044-15.87,5.216-31.301,14.944-43.84
	c2.798-3.688,5.972-7.074,9.472-10.104c4.868-4.293,10.293-7.91,16.128-10.752c3.278-1.66,6.693-3.033,10.208-4.104
	c2.417-8.994,6.395-17.494,11.752-25.112c2.14-3.08,4.515-5.99,7.104-8.704c2.624-2.789,5.453-5.377,8.464-7.744
	c1.705-1.485,3.515-2.846,5.416-4.072c3.191-2.132,6.521-4.049,9.968-5.736c15.737-7.467,33.465-9.653,50.544-6.232
	c0-0.528,0-1.064,0-1.6c-0.024-3.724,0.184-7.446,0.624-11.144c0.636-6.147,1.822-12.225,3.544-18.16
	c1.99-6.855,4.709-13.477,8.112-19.752c0.18-0.405,0.392-0.795,0.632-1.168l0.064-0.096v0.056
	c4.458-8.27,10.078-15.859,16.688-22.536c21.883-22.233,52.558-33.521,83.632-30.776c2.92,0.272,5.648,0.632,8.384,1.16
	c1.6,0.208,3.592,0.576,5.52,1.032c45.26,10.597,78.112,49.77,80.664,96.184c55.919-13.122,111.887,21.572,125.009,77.491
	c13.122,55.919-21.572,111.887-77.491,125.009c-4.843,1.137-9.762,1.924-14.718,2.357C381.848,306.07,378.968,306.158,376,306.158z
	 M128,122.158c-9.555,0.001-18.988,2.141-27.608,6.264c-2.767,1.364-5.44,2.911-8,4.632c-1.401,0.901-2.738,1.898-4,2.984
	c-2.56,2.001-4.967,4.191-7.2,6.552c-2.042,2.153-3.915,4.461-5.6,6.904c-5.042,7.185-8.547,15.334-10.296,23.936
	c-0.618,3.043-2.941,5.454-5.96,6.184c-4.017,0.922-7.911,2.315-11.6,4.152c-4.6,2.232-8.879,5.074-12.72,8.448
	c-2.704,2.341-5.16,4.955-7.328,7.8c-7.593,9.76-11.707,21.778-11.688,34.144c0.035,30.913,25.087,55.965,56,56h304
	c2.472,0,4.864-0.064,7.264-0.288c48.442-3.928,84.528-46.382,80.6-94.824c-3.71-45.752-41.962-80.967-87.864-80.888
	c-10.034-0.036-19.998,1.672-29.448,5.048c-4.157,1.498-8.74-0.658-10.238-4.815c-0.353-0.979-0.511-2.017-0.466-3.057
	c0.072-1.72,0.152-3.448,0.152-5.176c-0.202-40.984-28.499-76.474-68.408-85.8c-1.487-0.343-2.99-0.61-4.504-0.8
	c-2.672-0.504-4.904-0.8-7.2-1.008c-2.568-0.24-5.224-0.392-7.888-0.392c-23.684-0.079-46.389,9.446-62.928,26.4
	c-5.555,5.595-10.277,11.959-14.024,18.896c-0.088,0.176-0.184,0.344-0.28,0.512s-0.104,0.208-0.16,0.312
	c-2.988,5.413-5.366,11.142-7.088,17.08c-1.457,5.072-2.463,10.263-3.008,15.512c-0.359,3.083-0.53,6.184-0.512,9.288
	c-0.021,3.812,0.222,7.621,0.728,11.4c0.597,4.378-2.468,8.411-6.846,9.008c-1.339,0.183-2.702,0.023-3.962-0.464
	C142.92,123.446,135.488,122.109,128,122.158z"/>
<g>
	
		<linearGradient id="SVGID_2_" gradientUnits="userSpaceOnUse" x1="-23.8807" y1="559.922" x2="-23.8807" y2="619.342" gradientTransform="matrix(8 0 0 -8 454.9981 4960.4243)">
		<stop  offset="0" style="stop-color:#006DF0"/>
		<stop  offset="1" style="stop-color:#00E7F0"/>
	</linearGradient>
	<path style="fill:url(#SVGID_2_);" d="M252.688,365.47c-4.418-0.001-7.999-3.583-7.998-8.002c0-2.121,0.843-4.154,2.342-5.654
		l22.624-22.624c3.178-3.07,8.242-2.982,11.312,0.196c2.995,3.1,2.995,8.016,0,11.116l-22.624,22.624
		C256.844,364.627,254.81,365.47,252.688,365.47z"/>
	
		<linearGradient id="SVGID_3_" gradientUnits="userSpaceOnUse" x1="-29.8685" y1="559.9262" x2="-29.8685" y2="619.3463" gradientTransform="matrix(8 0 0 -8 454.9981 4960.4243)">
		<stop  offset="0" style="stop-color:#006DF0"/>
		<stop  offset="1" style="stop-color:#00E7F0"/>
	</linearGradient>
	<path style="fill:url(#SVGID_3_);" d="M204.688,365.47c-4.418-0.001-7.999-3.583-7.998-8.002c0-2.121,0.843-4.154,2.342-5.654
		l22.624-22.624c3.07-3.178,8.134-3.266,11.312-0.196c3.178,3.07,3.266,8.134,0.196,11.312c-0.064,0.067-0.13,0.132-0.196,0.196
		l-22.624,22.624C208.844,364.627,206.81,365.47,204.688,365.47L204.688,365.47z"/>
	
		<linearGradient id="SVGID_4_" gradientUnits="userSpaceOnUse" x1="-35.8685" y1="559.9262" x2="-35.8685" y2="619.3463" gradientTransform="matrix(8 0 0 -8 454.9981 4960.4243)">
		<stop  offset="0" style="stop-color:#006DF0"/>
		<stop  offset="1" style="stop-color:#00E7F0"/>
	</linearGradient>
	<path style="fill:url(#SVGID_4_);" d="M156.688,365.47c-4.418-0.001-7.999-3.583-7.998-8.002c0-2.121,0.843-4.154,2.342-5.654
		l22.624-22.624c3.07-3.178,8.134-3.266,11.312-0.196c3.178,3.07,3.266,8.134,0.196,11.312c-0.064,0.067-0.13,0.132-0.196,0.196
		l-22.624,22.624C160.844,364.627,158.81,365.47,156.688,365.47L156.688,365.47z"/>
	
		<linearGradient id="SVGID_5_" gradientUnits="userSpaceOnUse" x1="-17.8807" y1="559.922" x2="-17.8807" y2="619.342" gradientTransform="matrix(8 0 0 -8 454.9981 4960.4243)">
		<stop  offset="0" style="stop-color:#006DF0"/>
		<stop  offset="1" style="stop-color:#00E7F0"/>
	</linearGradient>
	<path style="fill:url(#SVGID_5_);" d="M300.688,365.47c-4.418-0.001-7.999-3.583-7.998-8.002c0-2.121,0.843-4.154,2.342-5.654
		l22.624-22.624c3.178-3.07,8.242-2.982,11.312,0.196c2.995,3.1,2.995,8.016,0,11.116l-22.624,22.624
		C304.844,364.627,302.81,365.47,300.688,365.47z"/>
	
		<linearGradient id="SVGID_6_" gradientUnits="userSpaceOnUse" x1="-11.8807" y1="559.922" x2="-11.8807" y2="619.342" gradientTransform="matrix(8 0 0 -8 454.9981 4960.4243)">
		<stop  offset="0" style="stop-color:#006DF0"/>
		<stop  offset="1" style="stop-color:#00E7F0"/>
	</linearGradient>
	<path style="fill:url(#SVGID_6_);" d="M348.688,365.47c-4.418-0.001-7.999-3.583-7.998-8.002c0-2.121,0.843-4.154,2.342-5.654
		l22.624-22.624c3.178-3.07,8.242-2.982,11.312,0.196c2.995,3.1,2.995,8.016,0,11.116l-22.624,22.624
		C352.844,364.627,350.81,365.47,348.688,365.47z"/>
	
		<linearGradient id="SVGID_7_" gradientUnits="userSpaceOnUse" x1="-30.8685" y1="559.9262" x2="-30.8685" y2="619.3463" gradientTransform="matrix(8 0 0 -8 454.9981 4960.4243)">
		<stop  offset="0" style="stop-color:#006DF0"/>
		<stop  offset="1" style="stop-color:#00E7F0"/>
	</linearGradient>
	<path style="fill:url(#SVGID_7_);" d="M196.688,421.47c-4.418-0.001-7.999-3.583-7.998-8.002c0-2.121,0.843-4.154,2.342-5.654
		l22.624-22.624c3.07-3.178,8.134-3.266,11.312-0.196c3.178,3.07,3.266,8.134,0.196,11.312c-0.064,0.067-0.13,0.132-0.196,0.196
		l-22.624,22.624C200.844,420.627,198.81,421.47,196.688,421.47L196.688,421.47z"/>
	
		<linearGradient id="SVGID_8_" gradientUnits="userSpaceOnUse" x1="-36.8685" y1="559.9262" x2="-36.8685" y2="619.3463" gradientTransform="matrix(8 0 0 -8 454.9981 4960.4243)">
		<stop  offset="0" style="stop-color:#006DF0"/>
		<stop  offset="1" style="stop-color:#00E7F0"/>
	</linearGradient>
	<path style="fill:url(#SVGID_8_);" d="M148.688,421.47c-4.418-0.001-7.999-3.583-7.998-8.002c0-2.121,0.843-4.154,2.342-5.654
		l22.624-22.624c3.07-3.178,8.134-3.266,11.312-0.196c3.178,3.07,3.266,8.134,0.196,11.312c-0.064,0.067-0.13,0.132-0.196,0.196
		l-22.624,22.624C152.844,420.627,150.81,421.47,148.688,421.47L148.688,421.47z"/>
	
		<linearGradient id="SVGID_9_" gradientUnits="userSpaceOnUse" x1="-42.8685" y1="559.9262" x2="-42.8685" y2="619.3463" gradientTransform="matrix(8 0 0 -8 454.9981 4960.4243)">
		<stop  offset="0" style="stop-color:#006DF0"/>
		<stop  offset="1" style="stop-color:#00E7F0"/>
	</linearGradient>
	<path style="fill:url(#SVGID_9_);" d="M100.688,421.47c-4.418-0.001-7.999-3.583-7.998-8.002c0-2.121,0.843-4.154,2.342-5.654
		l22.624-22.624c3.07-3.178,8.134-3.266,11.312-0.196c3.178,3.07,3.266,8.134,0.196,11.312c-0.064,0.067-0.13,0.132-0.196,0.196
		l-22.624,22.624C104.844,420.627,102.81,421.47,100.688,421.47z"/>
	
		<linearGradient id="SVGID_10_" gradientUnits="userSpaceOnUse" x1="-24.8807" y1="559.9262" x2="-24.8807" y2="619.3463" gradientTransform="matrix(8 0 0 -8 454.9981 4960.4243)">
		<stop  offset="0" style="stop-color:#006DF0"/>
		<stop  offset="1" style="stop-color:#00E7F0"/>
	</linearGradient>
	<path style="fill:url(#SVGID_10_);" d="M244.688,421.47c-4.418-0.001-7.999-3.583-7.998-8.002c0-2.121,0.843-4.154,2.342-5.654
		l22.624-22.624c3.178-3.07,8.242-2.982,11.312,0.196c2.995,3.1,2.995,8.016,0,11.116l-22.624,22.624
		C248.844,420.627,246.81,421.47,244.688,421.47z"/>
	
		<linearGradient id="SVGID_11_" gradientUnits="userSpaceOnUse" x1="-18.8807" y1="559.9262" x2="-18.8807" y2="619.3463" gradientTransform="matrix(8 0 0 -8 454.9981 4960.4243)">
		<stop  offset="0" style="stop-color:#006DF0"/>
		<stop  offset="1" style="stop-color:#00E7F0"/>
	</linearGradient>
	<path style="fill:url(#SVGID_11_);" d="M292.688,421.47c-4.418-0.001-7.999-3.583-7.998-8.002c0-2.121,0.843-4.154,2.342-5.654
		l22.624-22.624c3.178-3.07,8.242-2.982,11.312,0.196c2.995,3.1,2.995,8.016,0,11.116l-22.624,22.624
		C296.844,420.627,294.81,421.47,292.688,421.47z"/>
	
		<linearGradient id="SVGID_12_" gradientUnits="userSpaceOnUse" x1="-37.8685" y1="559.9262" x2="-37.8685" y2="619.3463" gradientTransform="matrix(8 0 0 -8 454.9981 4960.4243)">
		<stop  offset="0" style="stop-color:#006DF0"/>
		<stop  offset="1" style="stop-color:#00E7F0"/>
	</linearGradient>
	<path style="fill:url(#SVGID_12_);" d="M140.688,477.47c-4.418-0.001-7.999-3.583-7.998-8.002c0-2.121,0.843-4.154,2.342-5.654
		l22.624-22.624c3.07-3.178,8.134-3.266,11.312-0.196c3.178,3.07,3.266,8.134,0.196,11.312c-0.064,0.067-0.13,0.132-0.196,0.196
		l-22.624,22.624C144.844,476.627,142.81,477.47,140.688,477.47L140.688,477.47z"/>
	
		<linearGradient id="SVGID_13_" gradientUnits="userSpaceOnUse" x1="-43.8685" y1="559.9262" x2="-43.8685" y2="619.3463" gradientTransform="matrix(8 0 0 -8 454.9981 4960.4243)">
		<stop  offset="0" style="stop-color:#006DF0"/>
		<stop  offset="1" style="stop-color:#00E7F0"/>
	</linearGradient>
	<path style="fill:url(#SVGID_13_);" d="M92.688,477.47c-4.418-0.001-7.999-3.583-7.998-8.002c0-2.121,0.843-4.154,2.342-5.654
		l22.624-22.624c3.07-3.178,8.134-3.266,11.312-0.196c3.178,3.07,3.266,8.134,0.196,11.312c-0.064,0.067-0.13,0.132-0.196,0.196
		l-22.624,22.624C96.844,476.627,94.81,477.47,92.688,477.47z"/>
	
		<linearGradient id="SVGID_14_" gradientUnits="userSpaceOnUse" x1="-49.8685" y1="559.9262" x2="-49.8685" y2="619.3463" gradientTransform="matrix(8 0 0 -8 454.9981 4960.4243)">
		<stop  offset="0" style="stop-color:#006DF0"/>
		<stop  offset="1" style="stop-color:#00E7F0"/>
	</linearGradient>
	<path style="fill:url(#SVGID_14_);" d="M44.688,477.47c-4.418-0.001-7.999-3.583-7.998-8.002c0-2.121,0.843-4.154,2.342-5.654
		l22.624-22.624c3.07-3.178,8.134-3.266,11.312-0.196c3.178,3.07,3.266,8.134,0.196,11.312c-0.064,0.067-0.13,0.132-0.196,0.196
		l-22.624,22.624C48.844,476.627,46.81,477.47,44.688,477.47z"/>
	
		<linearGradient id="SVGID_15_" gradientUnits="userSpaceOnUse" x1="-31.8685" y1="559.9262" x2="-31.8685" y2="619.3463" gradientTransform="matrix(8 0 0 -8 454.9981 4960.4243)">
		<stop  offset="0" style="stop-color:#006DF0"/>
		<stop  offset="1" style="stop-color:#00E7F0"/>
	</linearGradient>
	<path style="fill:url(#SVGID_15_);" d="M188.688,477.47c-4.418-0.001-7.999-3.583-7.998-8.002c0-2.121,0.843-4.154,2.342-5.654
		l22.624-22.624c3.07-3.178,8.134-3.266,11.312-0.196c3.178,3.07,3.266,8.134,0.196,11.312c-0.064,0.067-0.13,0.132-0.196,0.196
		l-22.624,22.624C192.844,476.627,190.81,477.47,188.688,477.47L188.688,477.47z"/>
	
		<linearGradient id="SVGID_16_" gradientUnits="userSpaceOnUse" x1="-25.8807" y1="559.9262" x2="-25.8807" y2="619.3463" gradientTransform="matrix(8 0 0 -8 454.9981 4960.4243)">
		<stop  offset="0" style="stop-color:#006DF0"/>
		<stop  offset="1" style="stop-color:#00E7F0"/>
	</linearGradient>
	<path style="fill:url(#SVGID_16_);" d="M236.688,477.47c-4.418-0.001-7.999-3.583-7.998-8.002c0-2.121,0.843-4.154,2.342-5.654
		l22.624-22.624c3.178-3.07,8.242-2.982,11.312,0.196c2.995,3.1,2.995,8.016,0,11.116l-22.624,22.624
		C240.844,476.627,238.81,477.47,236.688,477.47L236.688,477.47z"/>
</g>
<g>
</g>
<g>
</g>
<g>
</g>
<g>
</g>
<g>
</g>
<g>
</g>
<g>
</g>
<g>
</g>
<g>
</g>
<g>
</g>
<g>
</g>
<g>
</g>
<g>
</g>
<g>
</g>
<g>
</g>
</svg>
