<?xml version="1.0" encoding="iso-8859-1"?>
<!-- Generator: Adobe Illustrator 19.0.0, SVG Export Plug-In . SVG Version: 6.00 Build 0)  -->
<svg version="1.1" id="Capa_1" xmlns="http://www.w3.org/2000/svg" xmlns:xlink="http://www.w3.org/1999/xlink" x="0px" y="0px"
	 viewBox="0 0 479.987 479.987" style="enable-background:new 0 0 479.987 479.987;" xml:space="preserve">
<g>
	
		<linearGradient id="SVGID_1_" gradientUnits="userSpaceOnUse" x1="-26.7266" y1="557.3622" x2="-26.7266" y2="619.1403" gradientTransform="matrix(8 0 0 -8 453.8066 4940.8853)">
		<stop  offset="0" style="stop-color:#006DF0"/>
		<stop  offset="1" style="stop-color:#00E7F0"/>
	</linearGradient>
	<path style="fill:url(#SVGID_1_);" d="M376.171,303.987h-304c-39.746-0.044-71.956-32.254-72-72
		c-0.04-15.87,5.219-31.299,14.944-43.84c2.801-3.69,5.978-7.079,9.48-10.112c4.867-4.284,10.286-7.898,16.112-10.744
		c3.28-1.661,6.698-3.034,10.216-4.104c2.414-8.995,6.392-17.496,11.752-25.112c2.14-3.08,4.515-5.99,7.104-8.704
		c2.626-2.787,5.455-5.375,8.464-7.744c1.708-1.488,3.521-2.852,5.424-4.08c3.187-2.127,6.512-4.041,9.952-5.728
		c15.742-7.461,33.47-9.647,50.552-6.232c0-0.528,0-1.064,0-1.6c-0.025-3.724,0.184-7.446,0.624-11.144
		c0.636-6.144,1.823-12.219,3.544-18.152c1.985-6.851,4.702-13.467,8.104-19.736c0.189-0.434,0.414-0.851,0.672-1.248l0.064-0.088
		c4.459-8.23,10.067-15.784,16.656-22.432c21.864-22.272,52.564-33.564,83.648-30.768c2.896,0.272,5.6,0.624,8.352,1.144
		c1.6,0.216,3.616,0.584,5.536,1.04c45.259,10.6,78.109,49.771,80.664,96.184c55.919-13.122,111.887,21.572,125.009,77.491
		c13.122,55.919-21.572,111.887-77.491,125.009c-4.843,1.137-9.762,1.924-14.718,2.357
		C382.018,303.899,379.138,303.987,376.171,303.987z M128.17,119.987c-9.555,0.003-18.988,2.143-27.608,6.264
		c-2.764,1.367-5.436,2.911-8,4.624c-1.4,0.908-2.736,1.91-4,3c-2.56,1.998-4.967,4.186-7.2,6.544
		c-2.042,2.153-3.915,4.461-5.6,6.904c-5.039,7.187-8.544,15.335-10.296,23.936c-0.615,3.046-2.939,5.461-5.96,6.192
		c-4.02,0.915-7.917,2.306-11.608,4.144c-4.597,2.236-8.873,5.08-12.712,8.456c-2.707,2.335-5.164,4.946-7.328,7.792
		c-7.593,9.76-11.707,21.778-11.688,34.144c0.04,30.911,25.089,55.96,56,56h304c2.472,0,4.864-0.072,7.264-0.288
		c48.442-3.928,84.528-46.382,80.6-94.824c-3.71-45.752-41.962-80.967-87.864-80.888c-10.034-0.036-19.998,1.672-29.448,5.048
		c-4.157,1.497-8.74-0.659-10.238-4.815c-0.352-0.976-0.51-2.012-0.466-3.049c0.072-1.744,0.152-3.456,0.152-5.184
		c-0.199-40.985-28.497-76.477-68.408-85.8c-1.512-0.36-3.016-0.632-4.52-0.84c-2.648-0.496-4.88-0.8-7.2-1
		c-2.56-0.208-5.216-0.36-7.872-0.36c-23.684-0.074-46.387,9.45-62.928,26.4c-5.551,5.601-10.273,11.967-14.024,18.904l-0.264,0.496
		l-0.184,0.336c-2.981,5.41-5.356,11.133-7.08,17.064c-1.457,5.075-2.463,10.268-3.008,15.52c-0.36,3.08-0.531,6.179-0.512,9.28
		c-0.021,3.812,0.222,7.621,0.728,11.4c0.597,4.378-2.468,8.411-6.846,9.008c-1.339,0.183-2.702,0.023-3.962-0.464
		C143.089,121.278,135.658,119.941,128.17,119.987L128.17,119.987z"/>
	
		<linearGradient id="SVGID_2_" gradientUnits="userSpaceOnUse" x1="-26.7045" y1="557.3622" x2="-26.7045" y2="619.1403" gradientTransform="matrix(8 0 0 -8 453.8066 4940.8853)">
		<stop  offset="0" style="stop-color:#006DF0"/>
		<stop  offset="1" style="stop-color:#00E7F0"/>
	</linearGradient>
	<path style="fill:url(#SVGID_2_);" d="M240.17,367.987c-4.418,0-8-3.582-8-8v-32c0-4.418,3.582-8,8-8s8,3.582,8,8v32
		C248.17,364.406,244.589,367.987,240.17,367.987z"/>
</g>
<g>
	
		<linearGradient id="SVGID_3_" gradientUnits="userSpaceOnUse" x1="-20.7045" y1="557.3622" x2="-20.7045" y2="619.1403" gradientTransform="matrix(8 0 0 -8 453.8066 4940.8853)">
		<stop  offset="0" style="stop-color:#006DF0"/>
		<stop  offset="1" style="stop-color:#00E7F0"/>
	</linearGradient>
	<path style="fill:url(#SVGID_3_);" d="M288.171,367.987c-4.418,0-8-3.582-8-8v-32c0-4.418,3.582-8,8-8s8,3.582,8,8v32
		C296.171,364.406,292.589,367.987,288.171,367.987z"/>
	
		<linearGradient id="SVGID_4_" gradientUnits="userSpaceOnUse" x1="-14.7045" y1="557.3622" x2="-14.7045" y2="619.1403" gradientTransform="matrix(8 0 0 -8 453.8066 4940.8853)">
		<stop  offset="0" style="stop-color:#006DF0"/>
		<stop  offset="1" style="stop-color:#00E7F0"/>
	</linearGradient>
	<path style="fill:url(#SVGID_4_);" d="M336.171,367.987c-4.418,0-8-3.582-8-8v-32c0-4.418,3.582-8,8-8s8,3.582,8,8v32
		C344.171,364.406,340.589,367.987,336.171,367.987z"/>
	
		<linearGradient id="SVGID_5_" gradientUnits="userSpaceOnUse" x1="-8.7045" y1="557.3622" x2="-8.7045" y2="619.1403" gradientTransform="matrix(8 0 0 -8 453.8066 4940.8853)">
		<stop  offset="0" style="stop-color:#006DF0"/>
		<stop  offset="1" style="stop-color:#00E7F0"/>
	</linearGradient>
	<path style="fill:url(#SVGID_5_);" d="M384.171,367.987c-4.418,0-8-3.582-8-8v-32c0-4.418,3.582-8,8-8s8,3.582,8,8v32
		C392.171,364.406,388.589,367.987,384.171,367.987z"/>
	
		<linearGradient id="SVGID_6_" gradientUnits="userSpaceOnUse" x1="-32.7045" y1="557.3622" x2="-32.7045" y2="619.1403" gradientTransform="matrix(8 0 0 -8 453.8066 4940.8853)">
		<stop  offset="0" style="stop-color:#006DF0"/>
		<stop  offset="1" style="stop-color:#00E7F0"/>
	</linearGradient>
	<path style="fill:url(#SVGID_6_);" d="M192.17,367.987c-4.418,0-8-3.582-8-8v-32c0-4.418,3.582-8,8-8s8,3.582,8,8v32
		C200.17,364.406,196.589,367.987,192.17,367.987z"/>
	
		<linearGradient id="SVGID_7_" gradientUnits="userSpaceOnUse" x1="-38.7045" y1="557.3622" x2="-38.7045" y2="619.1403" gradientTransform="matrix(8 0 0 -8 453.8066 4940.8853)">
		<stop  offset="0" style="stop-color:#006DF0"/>
		<stop  offset="1" style="stop-color:#00E7F0"/>
	</linearGradient>
	<path style="fill:url(#SVGID_7_);" d="M144.17,367.987c-4.418,0-8-3.582-8-8v-32c0-4.418,3.582-8,8-8s8,3.582,8,8v32
		C152.17,364.406,148.589,367.987,144.17,367.987z"/>
	
		<linearGradient id="SVGID_8_" gradientUnits="userSpaceOnUse" x1="-29.7045" y1="557.3622" x2="-29.7045" y2="619.1403" gradientTransform="matrix(8 0 0 -8 453.8066 4940.8853)">
		<stop  offset="0" style="stop-color:#006DF0"/>
		<stop  offset="1" style="stop-color:#00E7F0"/>
	</linearGradient>
	<path style="fill:url(#SVGID_8_);" d="M216.17,423.987c-4.418,0-8-3.582-8-8v-32c0-4.418,3.582-8,8-8s8,3.582,8,8v32
		C224.17,420.406,220.589,423.987,216.17,423.987z"/>
	
		<linearGradient id="SVGID_9_" gradientUnits="userSpaceOnUse" x1="-23.7045" y1="557.3622" x2="-23.7045" y2="619.1403" gradientTransform="matrix(8 0 0 -8 453.8066 4940.8853)">
		<stop  offset="0" style="stop-color:#006DF0"/>
		<stop  offset="1" style="stop-color:#00E7F0"/>
	</linearGradient>
	<path style="fill:url(#SVGID_9_);" d="M264.171,423.987c-4.418,0-8-3.582-8-8v-32c0-4.418,3.582-8,8-8s8,3.582,8,8v32
		C272.171,420.406,268.589,423.987,264.171,423.987z"/>
	
		<linearGradient id="SVGID_10_" gradientUnits="userSpaceOnUse" x1="-17.7045" y1="557.3622" x2="-17.7045" y2="619.1403" gradientTransform="matrix(8 0 0 -8 453.8066 4940.8853)">
		<stop  offset="0" style="stop-color:#006DF0"/>
		<stop  offset="1" style="stop-color:#00E7F0"/>
	</linearGradient>
	<path style="fill:url(#SVGID_10_);" d="M312.171,423.987c-4.418,0-8-3.582-8-8v-32c0-4.418,3.582-8,8-8s8,3.582,8,8v32
		C320.171,420.406,316.589,423.987,312.171,423.987z"/>
	
		<linearGradient id="SVGID_11_" gradientUnits="userSpaceOnUse" x1="-11.7045" y1="557.3622" x2="-11.7045" y2="619.1403" gradientTransform="matrix(8 0 0 -8 453.8066 4940.8853)">
		<stop  offset="0" style="stop-color:#006DF0"/>
		<stop  offset="1" style="stop-color:#00E7F0"/>
	</linearGradient>
	<path style="fill:url(#SVGID_11_);" d="M360.171,423.987c-4.418,0-8-3.582-8-8v-32c0-4.418,3.582-8,8-8s8,3.582,8,8v32
		C368.171,420.406,364.589,423.987,360.171,423.987z"/>
	
		<linearGradient id="SVGID_12_" gradientUnits="userSpaceOnUse" x1="-35.7045" y1="557.3622" x2="-35.7045" y2="619.1403" gradientTransform="matrix(8 0 0 -8 453.8066 4940.8853)">
		<stop  offset="0" style="stop-color:#006DF0"/>
		<stop  offset="1" style="stop-color:#00E7F0"/>
	</linearGradient>
	<path style="fill:url(#SVGID_12_);" d="M168.17,423.987c-4.418,0-8-3.582-8-8v-32c0-4.418,3.582-8,8-8s8,3.582,8,8v32
		C176.17,420.406,172.589,423.987,168.17,423.987z"/>
	
		<linearGradient id="SVGID_13_" gradientUnits="userSpaceOnUse" x1="-41.7045" y1="557.3622" x2="-41.7045" y2="619.1403" gradientTransform="matrix(8 0 0 -8 453.8066 4940.8853)">
		<stop  offset="0" style="stop-color:#006DF0"/>
		<stop  offset="1" style="stop-color:#00E7F0"/>
	</linearGradient>
	<path style="fill:url(#SVGID_13_);" d="M120.17,423.987c-4.418,0-8-3.582-8-8v-32c0-4.418,3.582-8,8-8s8,3.582,8,8v32
		C128.17,420.406,124.589,423.987,120.17,423.987z"/>
	
		<linearGradient id="SVGID_14_" gradientUnits="userSpaceOnUse" x1="-44.7045" y1="557.3622" x2="-44.7045" y2="619.1403" gradientTransform="matrix(8 0 0 -8 453.8066 4940.8853)">
		<stop  offset="0" style="stop-color:#006DF0"/>
		<stop  offset="1" style="stop-color:#00E7F0"/>
	</linearGradient>
	<path style="fill:url(#SVGID_14_);" d="M96.17,367.987c-4.418,0-8-3.582-8-8v-32c0-4.418,3.582-8,8-8s8,3.582,8,8v32
		C104.17,364.406,100.589,367.987,96.17,367.987z"/>
</g>
<linearGradient id="SVGID_15_" gradientUnits="userSpaceOnUse" x1="-26.7045" y1="557.3622" x2="-26.7045" y2="619.1403" gradientTransform="matrix(8 0 0 -8 453.8066 4940.8853)">
	<stop  offset="0" style="stop-color:#006DF0"/>
	<stop  offset="1" style="stop-color:#00E7F0"/>
</linearGradient>
<path style="fill:url(#SVGID_15_);" d="M240.17,479.987c-4.418,0-8-3.582-8-8v-32c0-4.418,3.582-8,8-8s8,3.582,8,8v32
	C248.17,476.406,244.589,479.987,240.17,479.987z"/>
<g>
	
		<linearGradient id="SVGID_16_" gradientUnits="userSpaceOnUse" x1="-20.7045" y1="557.3622" x2="-20.7045" y2="619.1403" gradientTransform="matrix(8 0 0 -8 453.8066 4940.8853)">
		<stop  offset="0" style="stop-color:#006DF0"/>
		<stop  offset="1" style="stop-color:#00E7F0"/>
	</linearGradient>
	<path style="fill:url(#SVGID_16_);" d="M288.171,479.987c-4.418,0-8-3.582-8-8v-32c0-4.418,3.582-8,8-8s8,3.582,8,8v32
		C296.171,476.406,292.589,479.987,288.171,479.987z"/>
	
		<linearGradient id="SVGID_17_" gradientUnits="userSpaceOnUse" x1="-14.7045" y1="557.3622" x2="-14.7045" y2="619.1403" gradientTransform="matrix(8 0 0 -8 453.8066 4940.8853)">
		<stop  offset="0" style="stop-color:#006DF0"/>
		<stop  offset="1" style="stop-color:#00E7F0"/>
	</linearGradient>
	<path style="fill:url(#SVGID_17_);" d="M336.171,479.987c-4.418,0-8-3.582-8-8v-32c0-4.418,3.582-8,8-8s8,3.582,8,8v32
		C344.171,476.406,340.589,479.987,336.171,479.987z"/>
	
		<linearGradient id="SVGID_18_" gradientUnits="userSpaceOnUse" x1="-32.7045" y1="557.3622" x2="-32.7045" y2="619.1403" gradientTransform="matrix(8 0 0 -8 453.8066 4940.8853)">
		<stop  offset="0" style="stop-color:#006DF0"/>
		<stop  offset="1" style="stop-color:#00E7F0"/>
	</linearGradient>
	<path style="fill:url(#SVGID_18_);" d="M192.17,479.987c-4.418,0-8-3.582-8-8v-32c0-4.418,3.582-8,8-8s8,3.582,8,8v32
		C200.17,476.406,196.589,479.987,192.17,479.987z"/>
	
		<linearGradient id="SVGID_19_" gradientUnits="userSpaceOnUse" x1="-38.7045" y1="557.3622" x2="-38.7045" y2="619.1403" gradientTransform="matrix(8 0 0 -8 453.8066 4940.8853)">
		<stop  offset="0" style="stop-color:#006DF0"/>
		<stop  offset="1" style="stop-color:#00E7F0"/>
	</linearGradient>
	<path style="fill:url(#SVGID_19_);" d="M144.17,479.987c-4.418,0-8-3.582-8-8v-32c0-4.418,3.582-8,8-8s8,3.582,8,8v32
		C152.17,476.406,148.589,479.987,144.17,479.987z"/>
</g>
<g>
</g>
<g>
</g>
<g>
</g>
<g>
</g>
<g>
</g>
<g>
</g>
<g>
</g>
<g>
</g>
<g>
</g>
<g>
</g>
<g>
</g>
<g>
</g>
<g>
</g>
<g>
</g>
<g>
</g>
</svg>
