<?xml version="1.0" encoding="iso-8859-1"?>
<!-- Generator: Adobe Illustrator 19.0.0, SVG Export Plug-In . SVG Version: 6.00 Build 0)  -->
<svg version="1.1" id="Capa_1" xmlns="http://www.w3.org/2000/svg" xmlns:xlink="http://www.w3.org/1999/xlink" x="0px" y="0px"
	 viewBox="0 0 483.297 483.297" style="enable-background:new 0 0 483.297 483.297;" xml:space="preserve">
<linearGradient id="SVGID_1_" gradientUnits="userSpaceOnUse" x1="-25.0718" y1="556.4198" x2="-25.0718" y2="618.8578" gradientTransform="matrix(8 0 0 -8 442.2231 4940.8633)">
	<stop  offset="0" style="stop-color:#006DF0"/>
	<stop  offset="1" style="stop-color:#00E7F0"/>
</linearGradient>
<path style="fill:url(#SVGID_1_);" d="M377.825,303.985h-304c-39.746-0.044-71.956-32.254-72-72
	c-0.04-15.87,5.219-31.299,14.944-43.84c2.801-3.69,5.978-7.079,9.48-10.112c4.866-4.29,10.288-7.904,16.12-10.744
	c3.276-1.664,6.692-3.037,10.208-4.104c2.42-8.993,6.398-17.492,11.752-25.112c2.142-3.078,4.517-5.988,7.104-8.704
	c2.625-2.785,5.452-5.373,8.456-7.744c1.711-1.488,3.526-2.851,5.432-4.08c3.189-2.129,6.516-4.043,9.96-5.728
	c15.739-7.46,33.464-9.645,50.544-6.232c0-0.528,0-1.064,0-1.6c-0.016-3.718,0.189-7.434,0.616-11.128
	c0.646-6.149,1.835-12.229,3.552-18.168c1.99-6.849,4.707-13.465,8.104-19.736c0.186-0.436,0.411-0.853,0.672-1.248l0.056-0.088
	c4.458-8.233,10.069-15.786,16.664-22.432C197.358,8.921,228.054-2.37,259.137,0.417c2.896,0.272,5.6,0.624,8.352,1.144
	c1.6,0.216,3.616,0.584,5.544,1.04c45.256,10.603,78.102,49.773,80.656,96.184c55.919-13.122,111.887,21.572,125.009,77.491
	c13.122,55.919-21.572,111.887-77.491,125.009c-4.843,1.137-9.762,1.924-14.718,2.357
	C383.673,303.897,380.793,303.985,377.825,303.985z M129.825,119.985c-9.555,0.003-18.988,2.143-27.608,6.264
	c-2.765,1.367-5.438,2.914-8,4.632c-1.397,0.906-2.733,1.903-4,2.984c-2.559,2.003-4.965,4.193-7.2,6.552
	c-2.04,2.155-3.912,4.463-5.6,6.904c-5.037,7.188-8.539,15.336-10.288,23.936c-0.616,3.049-2.944,5.464-5.968,6.192
	c-4.021,0.913-7.918,2.305-11.608,4.144c-4.599,2.234-8.875,5.078-12.712,8.456c-2.709,2.333-5.165,4.945-7.328,7.792
	c-7.593,9.76-11.707,21.778-11.688,34.144c0.035,30.913,25.087,55.965,56,56h304c2.472,0,4.872-0.072,7.272-0.288
	c48.442-3.928,84.528-46.382,80.6-94.824c-3.71-45.755-41.967-80.972-87.872-80.888c-10.034-0.036-19.999,1.672-29.448,5.048
	c-4.157,1.498-8.74-0.658-10.238-4.815c-0.354-0.982-0.512-2.023-0.466-3.065c0.08-1.72,0.152-3.44,0.152-5.168
	c-0.196-40.986-28.496-76.48-68.408-85.8c-1.512-0.36-3.016-0.632-4.52-0.84c-2.656-0.496-4.888-0.8-7.2-1
	c-2.56-0.208-5.216-0.36-7.872-0.36c-23.686-0.075-46.392,9.45-62.936,26.4c-5.548,5.599-10.268,11.962-14.016,18.896l-0.264,0.496
	c-0.056,0.104-0.112,0.224-0.176,0.336c-2.989,5.41-5.366,11.136-7.088,17.072c-1.461,5.074-2.468,10.268-3.008,15.52
	c-0.358,3.08-0.529,6.179-0.512,9.28c-0.018,3.81,0.226,7.616,0.728,11.392c0.6,4.377-2.462,8.412-6.84,9.012
	c-1.338,0.183-2.7,0.025-3.96-0.46C144.749,121.276,137.315,119.939,129.825,119.985z"/>
<g>
	
		<linearGradient id="SVGID_2_" gradientUnits="userSpaceOnUse" x1="-16.0558" y1="556.4198" x2="-16.0558" y2="618.8578" gradientTransform="matrix(8 0 0 -8 442.2231 4940.8633)">
		<stop  offset="0" style="stop-color:#006DF0"/>
		<stop  offset="1" style="stop-color:#00E7F0"/>
	</linearGradient>
	<path style="fill:url(#SVGID_2_);" d="M302.513,355.297c-4.418-0.001-7.999-3.583-7.998-8.002c0-2.121,0.843-4.154,2.342-5.654
		l22.624-22.624c3.178-3.07,8.242-2.982,11.312,0.196c2.995,3.1,2.995,8.016,0,11.116l-22.624,22.624
		C306.669,354.453,304.635,355.296,302.513,355.297z"/>
	
		<linearGradient id="SVGID_3_" gradientUnits="userSpaceOnUse" x1="-8.0558" y1="556.4198" x2="-8.0558" y2="618.8578" gradientTransform="matrix(8 0 0 -8 442.2231 4940.8633)">
		<stop  offset="0" style="stop-color:#006DF0"/>
		<stop  offset="1" style="stop-color:#00E7F0"/>
	</linearGradient>
	<path style="fill:url(#SVGID_3_);" d="M366.513,355.297c-4.418-0.001-7.999-3.583-7.998-8.002c0-2.121,0.843-4.154,2.342-5.654
		l22.624-22.624c3.178-3.07,8.242-2.982,11.312,0.196c2.995,3.1,2.995,8.016,0,11.116l-22.624,22.624
		C370.669,354.453,368.635,355.296,366.513,355.297z"/>
	
		<linearGradient id="SVGID_4_" gradientUnits="userSpaceOnUse" x1="-16.0558" y1="556.4198" x2="-16.0558" y2="618.8578" gradientTransform="matrix(8 0 0 -8 442.2231 4940.8633)">
		<stop  offset="0" style="stop-color:#006DF0"/>
		<stop  offset="1" style="stop-color:#00E7F0"/>
	</linearGradient>
	<path style="fill:url(#SVGID_4_);" d="M302.513,419.297c-4.418-0.001-7.999-3.583-7.998-8.002c0-2.121,0.843-4.154,2.342-5.654
		l22.624-22.624c3.178-3.07,8.242-2.982,11.312,0.196c2.995,3.1,2.995,8.016,0,11.116l-22.624,22.624
		C306.669,418.453,304.635,419.296,302.513,419.297z"/>
	
		<linearGradient id="SVGID_5_" gradientUnits="userSpaceOnUse" x1="-8.0558" y1="556.4198" x2="-8.0558" y2="618.8578" gradientTransform="matrix(8 0 0 -8 442.2231 4940.8633)">
		<stop  offset="0" style="stop-color:#006DF0"/>
		<stop  offset="1" style="stop-color:#00E7F0"/>
	</linearGradient>
	<path style="fill:url(#SVGID_5_);" d="M366.513,419.297c-4.418-0.001-7.999-3.583-7.998-8.002c0-2.121,0.843-4.154,2.342-5.654
		l22.624-22.624c3.178-3.07,8.242-2.982,11.312,0.196c2.995,3.1,2.995,8.016,0,11.116l-22.624,22.624
		C370.669,418.453,368.635,419.296,366.513,419.297z"/>
	
		<linearGradient id="SVGID_6_" gradientUnits="userSpaceOnUse" x1="-20.0558" y1="556.4198" x2="-20.0558" y2="618.8578" gradientTransform="matrix(8 0 0 -8 442.2231 4940.8633)">
		<stop  offset="0" style="stop-color:#006DF0"/>
		<stop  offset="1" style="stop-color:#00E7F0"/>
	</linearGradient>
	<path style="fill:url(#SVGID_6_);" d="M270.513,483.297c-4.418-0.001-7.999-3.583-7.998-8.002c0-2.121,0.843-4.154,2.342-5.654
		l22.624-22.624c3.178-3.07,8.242-2.982,11.312,0.196c2.995,3.1,2.995,8.016,0,11.116l-22.624,22.624
		C274.669,482.453,272.635,483.296,270.513,483.297z"/>
	
		<linearGradient id="SVGID_7_" gradientUnits="userSpaceOnUse" x1="-12.0558" y1="556.4198" x2="-12.0558" y2="618.8578" gradientTransform="matrix(8 0 0 -8 442.2231 4940.8633)">
		<stop  offset="0" style="stop-color:#006DF0"/>
		<stop  offset="1" style="stop-color:#00E7F0"/>
	</linearGradient>
	<path style="fill:url(#SVGID_7_);" d="M334.513,483.297c-4.418-0.001-7.999-3.583-7.998-8.002c0-2.121,0.843-4.154,2.342-5.654
		l22.624-22.624c3.178-3.07,8.242-2.982,11.312,0.196c2.995,3.1,2.995,8.016,0,11.116l-22.624,22.624
		C338.669,482.453,336.635,483.296,334.513,483.297z"/>
	
		<linearGradient id="SVGID_8_" gradientUnits="userSpaceOnUse" x1="-40.0435" y1="556.4198" x2="-40.0435" y2="618.8578" gradientTransform="matrix(8 0 0 -8 442.2231 4940.8633)">
		<stop  offset="0" style="stop-color:#006DF0"/>
		<stop  offset="1" style="stop-color:#00E7F0"/>
	</linearGradient>
	<path style="fill:url(#SVGID_8_);" d="M110.513,355.297c-4.418-0.001-7.999-3.583-7.998-8.002c0-2.121,0.843-4.154,2.342-5.654
		l22.624-22.624c3.07-3.178,8.134-3.266,11.312-0.196c3.178,3.07,3.266,8.134,0.196,11.312c-0.064,0.067-0.13,0.132-0.196,0.196
		l-22.624,22.624C114.669,354.453,112.635,355.296,110.513,355.297z"/>
	
		<linearGradient id="SVGID_9_" gradientUnits="userSpaceOnUse" x1="-32.0435" y1="556.4198" x2="-32.0435" y2="618.8578" gradientTransform="matrix(8 0 0 -8 442.2231 4940.8633)">
		<stop  offset="0" style="stop-color:#006DF0"/>
		<stop  offset="1" style="stop-color:#00E7F0"/>
	</linearGradient>
	<path style="fill:url(#SVGID_9_);" d="M174.513,355.297c-4.418-0.001-7.999-3.583-7.998-8.002c0-2.121,0.843-4.154,2.342-5.654
		l22.624-22.624c3.07-3.178,8.134-3.266,11.312-0.196c3.178,3.07,3.266,8.134,0.196,11.312c-0.064,0.067-0.13,0.132-0.196,0.196
		l-22.624,22.624C178.669,354.453,176.635,355.296,174.513,355.297L174.513,355.297z"/>
	
		<linearGradient id="SVGID_10_" gradientUnits="userSpaceOnUse" x1="-44.0435" y1="556.4198" x2="-44.0435" y2="618.8578" gradientTransform="matrix(8 0 0 -8 442.2231 4940.8633)">
		<stop  offset="0" style="stop-color:#006DF0"/>
		<stop  offset="1" style="stop-color:#00E7F0"/>
	</linearGradient>
	<path style="fill:url(#SVGID_10_);" d="M78.513,419.297c-4.418-0.001-7.999-3.583-7.998-8.002c0-2.121,0.843-4.154,2.342-5.654
		l22.624-22.624c3.069-3.178,8.134-3.266,11.312-0.196c3.178,3.07,3.266,8.134,0.196,11.312c-0.064,0.067-0.13,0.132-0.196,0.196
		l-22.624,22.624C82.669,418.453,80.635,419.296,78.513,419.297z"/>
	
		<linearGradient id="SVGID_11_" gradientUnits="userSpaceOnUse" x1="-36.0435" y1="556.4198" x2="-36.0435" y2="618.8578" gradientTransform="matrix(8 0 0 -8 442.2231 4940.8633)">
		<stop  offset="0" style="stop-color:#006DF0"/>
		<stop  offset="1" style="stop-color:#00E7F0"/>
	</linearGradient>
	<path style="fill:url(#SVGID_11_);" d="M142.513,419.297c-4.418-0.001-7.999-3.583-7.998-8.002c0-2.121,0.843-4.154,2.342-5.654
		l22.624-22.624c3.07-3.178,8.134-3.266,11.312-0.196c3.178,3.07,3.266,8.134,0.196,11.312c-0.064,0.067-0.13,0.132-0.196,0.196
		l-22.624,22.624C146.669,418.453,144.635,419.296,142.513,419.297L142.513,419.297z"/>
	
		<linearGradient id="SVGID_12_" gradientUnits="userSpaceOnUse" x1="-48.0435" y1="556.4198" x2="-48.0435" y2="618.8578" gradientTransform="matrix(8 0 0 -8 442.2231 4940.8633)">
		<stop  offset="0" style="stop-color:#006DF0"/>
		<stop  offset="1" style="stop-color:#00E7F0"/>
	</linearGradient>
	<path style="fill:url(#SVGID_12_);" d="M46.513,483.297c-4.418-0.001-7.999-3.583-7.998-8.002c0-2.121,0.843-4.154,2.342-5.654
		l22.624-22.624c3.07-3.178,8.134-3.266,11.312-0.196c3.178,3.07,3.266,8.134,0.196,11.312c-0.064,0.067-0.13,0.132-0.196,0.196
		l-22.624,22.624C50.669,482.453,48.635,483.296,46.513,483.297z"/>
	
		<linearGradient id="SVGID_13_" gradientUnits="userSpaceOnUse" x1="-40.0435" y1="556.4198" x2="-40.0435" y2="618.8578" gradientTransform="matrix(8 0 0 -8 442.2231 4940.8633)">
		<stop  offset="0" style="stop-color:#006DF0"/>
		<stop  offset="1" style="stop-color:#00E7F0"/>
	</linearGradient>
	<path style="fill:url(#SVGID_13_);" d="M110.513,483.297c-4.418-0.001-7.999-3.583-7.998-8.002c0-2.121,0.843-4.154,2.342-5.654
		l22.624-22.624c3.07-3.178,8.134-3.266,11.312-0.196c3.178,3.07,3.266,8.134,0.196,11.312c-0.064,0.067-0.13,0.132-0.196,0.196
		l-22.624,22.624C114.669,482.453,112.635,483.296,110.513,483.297z"/>
</g>
<linearGradient id="SVGID_14_" gradientUnits="userSpaceOnUse" x1="-25.0497" y1="556.4198" x2="-25.0497" y2="618.8578" gradientTransform="matrix(8 0 0 -8 442.2231 4940.8633)">
	<stop  offset="0" style="stop-color:#006DF0"/>
	<stop  offset="1" style="stop-color:#00E7F0"/>
</linearGradient>
<path style="fill:url(#SVGID_14_);" d="M281.825,367.985c0-4.418-3.582-8-8-8h-44.688l32.976-32.968
	c3.178-3.07,3.266-8.134,0.196-11.312c-3.07-3.178-8.134-3.266-11.312-0.196c-0.066,0.064-0.132,0.129-0.196,0.196l-45.264,45.248
	c-0.197,0.254-0.376,0.521-0.536,0.8c-1.979,1.463-3.155,3.771-3.176,6.232c0,4.418,3.582,8,8,8h44.688l-40.976,40.968
	c-3.178,3.069-3.266,8.134-0.196,11.312c3.069,3.178,8.134,3.266,11.312,0.196c0.067-0.064,0.132-0.13,0.196-0.196l53.264-53.248
	c0.197-0.254,0.376-0.521,0.536-0.8C280.628,372.754,281.805,370.446,281.825,367.985z"/>
<linearGradient id="SVGID_15_" gradientUnits="userSpaceOnUse" x1="-32.0435" y1="556.4198" x2="-32.0435" y2="618.8578" gradientTransform="matrix(8 0 0 -8 442.2231 4940.8633)">
	<stop  offset="0" style="stop-color:#006DF0"/>
	<stop  offset="1" style="stop-color:#00E7F0"/>
</linearGradient>
<path style="fill:url(#SVGID_15_);" d="M174.513,483.297c-4.418-0.001-7.999-3.583-7.998-8.002c0-2.121,0.843-4.154,2.342-5.654
	l22.624-22.624c3.07-3.178,8.134-3.266,11.312-0.196c3.178,3.07,3.266,8.134,0.196,11.312c-0.064,0.067-0.13,0.132-0.196,0.196
	l-22.624,22.624C178.669,482.453,176.635,483.296,174.513,483.297L174.513,483.297z"/>
<g>
</g>
<g>
</g>
<g>
</g>
<g>
</g>
<g>
</g>
<g>
</g>
<g>
</g>
<g>
</g>
<g>
</g>
<g>
</g>
<g>
</g>
<g>
</g>
<g>
</g>
<g>
</g>
<g>
</g>
</svg>
